<svg width="24" height="24" viewBox="0 0 24 24" fill="none" xmlns="http://www.w3.org/2000/svg">
<path d="M14.0002 2.00009H6.00018C5.46975 2.00009 4.96104 2.21081 4.58597 2.58588C4.2109 2.96095 4.00018 3.46966 4.00018 4.00009V20.0001C4.00018 20.5305 4.2109 21.0392 4.58597 21.4143C4.96104 21.7894 5.46975 22.0001 6.00018 22.0001H18.0002C18.5306 22.0001 19.0393 21.7894 19.4144 21.4143C19.7895 21.0392 20.0002 20.5305 20.0002 20.0001V8.00009L14.0002 2.00009Z" stroke="white" stroke-linecap="round" stroke-linejoin="round"/>
<path d="M13.9998 2.00009V8.00009H19.9998" stroke="white" stroke-linecap="round" stroke-linejoin="round"/>
<path d="M15.9998 12.9999H7.99982" stroke="white" stroke-linecap="round" stroke-linejoin="round"/>
<path d="M15.9998 17.0001H7.99982" stroke="white" stroke-linecap="round" stroke-linejoin="round"/>
<path d="M9.99982 9H8.99982H7.99982" stroke="white" stroke-linecap="round" stroke-linejoin="round"/>
</svg>
