<svg width="17" height="17" viewBox="0 0 17 17" fill="none" xmlns="http://www.w3.org/2000/svg">
<g clip-path="url(#clip0_60:23)">
<path d="M8.57861 10.1519C9.68318 10.1519 10.5786 9.25643 10.5786 8.15186C10.5786 7.04729 9.68318 6.15186 8.57861 6.15186C7.47404 6.15186 6.57861 7.04729 6.57861 8.15186C6.57861 9.25643 7.47404 10.1519 8.57861 10.1519Z" stroke="#0275B1" stroke-linecap="round" stroke-linejoin="round"/>
<path d="M13.512 10.1519C13.4232 10.353 13.3967 10.576 13.4359 10.7923C13.4752 11.0085 13.5783 11.2081 13.732 11.3652L13.772 11.4052C13.8959 11.529 13.9943 11.6761 14.0614 11.838C14.1285 11.9998 14.163 12.1733 14.163 12.3485C14.163 12.5238 14.1285 12.6973 14.0614 12.8591C13.9943 13.021 13.8959 13.168 13.772 13.2919C13.6481 13.4158 13.5011 13.5142 13.3392 13.5813C13.1773 13.6484 13.0038 13.6829 12.8286 13.6829C12.6534 13.6829 12.4799 13.6484 12.318 13.5813C12.1562 13.5142 12.0091 13.4158 11.8853 13.2919L11.8453 13.2519C11.6882 13.0982 11.4886 12.9951 11.2723 12.9559C11.0561 12.9167 10.833 12.9431 10.632 13.0319C10.4348 13.1164 10.2666 13.2567 10.1482 13.4356C10.0297 13.6144 9.96614 13.824 9.96528 14.0385V14.1519C9.96528 14.5055 9.82481 14.8446 9.57476 15.0947C9.32471 15.3447 8.98557 15.4852 8.63195 15.4852C8.27833 15.4852 7.93919 15.3447 7.68914 15.0947C7.43909 14.8446 7.29862 14.5055 7.29862 14.1519V14.0919C7.29346 13.8712 7.22203 13.6572 7.09363 13.4777C6.96522 13.2981 6.78577 13.1614 6.57862 13.0852C6.37754 12.9965 6.15449 12.97 5.93823 13.0092C5.72196 13.0484 5.5224 13.1515 5.36528 13.3052L5.32528 13.3452C5.20145 13.4692 5.0544 13.5675 4.89254 13.6346C4.73067 13.7017 4.55717 13.7363 4.38195 13.7363C4.20673 13.7363 4.03323 13.7017 3.87136 13.6346C3.7095 13.5675 3.56245 13.4692 3.43862 13.3452C3.31465 13.2214 3.2163 13.0743 3.14921 12.9125C3.08211 12.7506 3.04757 12.5771 3.04757 12.4019C3.04757 12.2267 3.08211 12.0532 3.14921 11.8913C3.2163 11.7294 3.31465 11.5824 3.43862 11.4585L3.47862 11.4185C3.63231 11.2614 3.73541 11.0619 3.77462 10.8456C3.81383 10.6293 3.78736 10.4063 3.69862 10.2052C3.61411 10.008 3.47379 9.83986 3.29493 9.72141C3.11607 9.60296 2.90648 9.5394 2.69195 9.53854H2.57862C2.225 9.53854 1.88586 9.39807 1.63581 9.14802C1.38576 8.89797 1.24529 8.55883 1.24529 8.20521C1.24529 7.85159 1.38576 7.51245 1.63581 7.2624C1.88586 7.01235 2.225 6.87188 2.57862 6.87188H2.63862C2.85928 6.86671 3.07329 6.79529 3.25282 6.66688C3.43235 6.53848 3.5691 6.35903 3.64528 6.15188C3.73403 5.9508 3.7605 5.72775 3.72129 5.51148C3.68208 5.29522 3.57898 5.09566 3.42528 4.93854L3.38528 4.89854C3.26132 4.77471 3.16297 4.62766 3.09587 4.4658C3.02877 4.30393 2.99424 4.13043 2.99424 3.95521C2.99424 3.77999 3.02877 3.60649 3.09587 3.44462C3.16297 3.28276 3.26132 3.13571 3.38528 3.01188C3.50912 2.88791 3.65617 2.78956 3.81803 2.72246C3.9799 2.65536 4.1534 2.62083 4.32862 2.62083C4.50384 2.62083 4.67734 2.65536 4.83921 2.72246C5.00107 2.78956 5.14812 2.88791 5.27195 3.01188L5.31195 3.05188C5.46907 3.20557 5.66863 3.30867 5.88489 3.34788C6.10116 3.38709 6.32421 3.36062 6.52528 3.27188H6.57862C6.7758 3.18737 6.94396 3.04705 7.06241 2.86819C7.18086 2.68933 7.24443 2.47973 7.24528 2.26521V2.15188C7.24528 1.79825 7.38576 1.45912 7.63581 1.20907C7.88586 0.959018 8.225 0.818542 8.57862 0.818542C8.93224 0.818542 9.27138 0.959018 9.52143 1.20907C9.77148 1.45912 9.91195 1.79825 9.91195 2.15188V2.21188C9.91281 2.4264 9.97637 2.63599 10.0948 2.81485C10.2133 2.99371 10.3814 3.13403 10.5786 3.21854C10.7797 3.30729 11.0027 3.33376 11.219 3.29455C11.4353 3.25533 11.6348 3.15223 11.792 2.99854L11.832 2.95854C11.9558 2.83457 12.1028 2.73623 12.2647 2.66913C12.4266 2.60203 12.6001 2.56749 12.7753 2.56749C12.9505 2.56749 13.124 2.60203 13.2859 2.66913C13.4477 2.73623 13.5948 2.83457 13.7186 2.95854C13.8426 3.08237 13.9409 3.22942 14.008 3.39129C14.0751 3.55315 14.1097 3.72665 14.1097 3.90188C14.1097 4.0771 14.0751 4.2506 14.008 4.41246C13.9409 4.57433 13.8426 4.72138 13.7186 4.84521L13.6786 4.88521C13.5249 5.04233 13.4218 5.24189 13.3826 5.45815C13.3434 5.67441 13.3699 5.89746 13.4586 6.09854V6.15188C13.5431 6.34905 13.6834 6.51722 13.8623 6.63567C14.0412 6.75412 14.2508 6.81769 14.4653 6.81854H14.5786C14.9322 6.81854 15.2714 6.95902 15.5214 7.20907C15.7715 7.45912 15.912 7.79825 15.912 8.15188C15.912 8.5055 15.7715 8.84464 15.5214 9.09468C15.2714 9.34473 14.9322 9.48521 14.5786 9.48521H14.5186C14.3041 9.48606 14.0945 9.54963 13.9156 9.66808C13.7368 9.78653 13.5965 9.9547 13.512 10.1519V10.1519Z" stroke="#0275B1" stroke-linecap="round" stroke-linejoin="round"/>
</g>
<defs>
<clipPath id="clip0_60:23">
<rect width="16" height="16" fill="white" transform="translate(0.578613 0.151855)"/>
</clipPath>
</defs>
</svg>
